<svg width="18" height="18" viewBox="0 0 18 18" fill="none" xmlns="http://www.w3.org/2000/svg">
<g id="bell-icon-UIHUT">
<path id="Vector (Stroke)" fill-rule="evenodd" clip-rule="evenodd" d="M5.28769 2.28769C6.27226 1.30312 7.60761 0.75 9 0.75C10.3924 0.75 11.7277 1.30312 12.7123 2.28769C13.6969 3.27226 14.25 4.60761 14.25 6C14.25 8.51449 14.7878 10.076 15.2834 10.9846C15.5323 11.4408 15.7746 11.7401 15.9429 11.9178C16.0273 12.0068 16.0935 12.0659 16.1335 12.0991C16.1534 12.1158 16.1668 12.126 16.1726 12.1303C16.1735 12.1309 16.1742 12.1315 16.1747 12.1319C16.4436 12.3165 16.5626 12.6544 16.4678 12.9673C16.372 13.2837 16.0805 13.5 15.75 13.5H2.25C1.9195 13.5 1.62796 13.2837 1.53218 12.9673C1.43743 12.6544 1.5564 12.3165 1.82527 12.1319C1.82579 12.1315 1.82651 12.1309 1.82741 12.1303C1.83319 12.126 1.84658 12.1158 1.86654 12.0991C1.90645 12.0659 1.97274 12.0068 2.0571 11.9178C2.22542 11.7401 2.46773 11.4408 2.71658 10.9846C3.2122 10.076 3.75 8.51449 3.75 6C3.75 4.60761 4.30312 3.27226 5.28769 2.28769ZM1.83285 12.1267C1.83291 12.1267 1.83297 12.1266 1.83303 12.1266C1.83302 12.1266 1.83302 12.1266 1.83302 12.1266L1.83285 12.1267ZM3.86199 12H14.138C14.0809 11.9065 14.0237 11.8075 13.9666 11.7029C13.3372 10.549 12.75 8.73551 12.75 6C12.75 5.00544 12.3549 4.05161 11.6517 3.34835C10.9484 2.64509 9.99456 2.25 9 2.25C8.00544 2.25 7.05161 2.64509 6.34835 3.34835C5.64509 4.05161 5.25 5.00544 5.25 6C5.25 8.73551 4.6628 10.549 4.03342 11.7029C3.97635 11.8075 3.91906 11.9065 3.86199 12Z" fill="#8D98AF"/>
<path id="Vector (Stroke)_2" fill-rule="evenodd" clip-rule="evenodd" d="M7.32617 15.1011C7.68447 14.8933 8.14341 15.0153 8.35125 15.3736C8.41718 15.4872 8.51181 15.5815 8.62567 15.6471C8.73952 15.7127 8.86861 15.7472 9 15.7472C9.13139 15.7472 9.26048 15.7127 9.37434 15.6471C9.48819 15.5815 9.58282 15.4872 9.64875 15.3736C9.85659 15.0153 10.3155 14.8933 10.6738 15.1011C11.0321 15.309 11.1541 15.7679 10.9463 16.1262C10.7485 16.4672 10.4646 16.7502 10.123 16.9469C9.78144 17.1437 9.39418 17.2472 9 17.2472C8.60583 17.2472 8.21857 17.1437 7.877 16.9469C7.53543 16.7502 7.25154 16.4672 7.05375 16.1262C6.84591 15.7679 6.96788 15.309 7.32617 15.1011Z" fill="#8D98AF"/>
</g>
</svg>
