<svg width="25" height="24" viewBox="0 0 25 24" fill="none" xmlns="http://www.w3.org/2000/svg">
<g id="chevron-down">
<path id="Vector" d="M12.4978 14.4999L12.497 14.4999C12.4312 14.5003 12.366 14.4877 12.3051 14.4628C12.2444 14.4381 12.1892 14.4016 12.1426 14.3555C12.1424 14.3553 12.1422 14.3551 12.1421 14.3549L8.14349 10.3564C8.04896 10.2619 7.99585 10.1336 7.99585 9.99994C7.99585 9.86625 8.04896 9.73803 8.14349 9.64349C8.23803 9.54896 8.36625 9.49585 8.49994 9.49585C8.63353 9.49585 8.76166 9.54888 8.85617 9.64328C8.85624 9.64335 8.85632 9.64342 8.85639 9.64349L12.1459 12.943L12.4994 13.2976L12.8535 12.9435L16.1275 9.6695C16.2213 9.59425 16.3392 9.5552 16.4597 9.55986C16.5855 9.56472 16.7049 9.61688 16.794 9.70593C16.883 9.79498 16.9352 9.91435 16.94 10.0402C16.9447 10.1607 16.9056 10.2786 16.8304 10.3724L12.8478 14.3549C12.8476 14.3551 12.8474 14.3553 12.8472 14.3555C12.7542 14.4475 12.6287 14.4994 12.4978 14.4999Z" fill="#A098AE" stroke="#A098AE"/>
</g>
</svg>
